<?xml version="1.0" standalone="no"?>
<svg xmlns:xlink="http://www.w3.org/1999/xlink" id="wave" style="transform:rotate(180deg); transition: 0.3s" viewBox="0 0 1440 130" version="1.1" xmlns="http://www.w3.org/2000/svg"><defs><linearGradient id="sw-gradient-0" x1="0" x2="0" y1="1" y2="0"><stop stop-color="rgba(255, 249, 234, 1)" offset="0%"/><stop stop-color="rgba(255, 249, 234, 1)" offset="100%"/></linearGradient></defs><path style="transform:translate(0, 0px); opacity:1" fill="url(#sw-gradient-0)" d="M0,0L30,19.5C60,39,120,78,180,91C240,104,300,91,360,75.8C420,61,480,43,540,32.5C600,22,660,17,720,13C780,9,840,4,900,15.2C960,26,1020,52,1080,54.2C1140,56,1200,35,1260,34.7C1320,35,1380,56,1440,65C1500,74,1560,69,1620,58.5C1680,48,1740,30,1800,26C1860,22,1920,30,1980,34.7C2040,39,2100,39,2160,32.5C2220,26,2280,13,2340,13C2400,13,2460,26,2520,45.5C2580,65,2640,91,2700,101.8C2760,113,2820,108,2880,104C2940,100,3000,95,3060,91C3120,87,3180,82,3240,86.7C3300,91,3360,104,3420,108.3C3480,113,3540,108,3600,99.7C3660,91,3720,78,3780,69.3C3840,61,3900,56,3960,60.7C4020,65,4080,78,4140,78C4200,78,4260,65,4290,58.5L4320,52L4320,130L4290,130C4260,130,4200,130,4140,130C4080,130,4020,130,3960,130C3900,130,3840,130,3780,130C3720,130,3660,130,3600,130C3540,130,3480,130,3420,130C3360,130,3300,130,3240,130C3180,130,3120,130,3060,130C3000,130,2940,130,2880,130C2820,130,2760,130,2700,130C2640,130,2580,130,2520,130C2460,130,2400,130,2340,130C2280,130,2220,130,2160,130C2100,130,2040,130,1980,130C1920,130,1860,130,1800,130C1740,130,1680,130,1620,130C1560,130,1500,130,1440,130C1380,130,1320,130,1260,130C1200,130,1140,130,1080,130C1020,130,960,130,900,130C840,130,780,130,720,130C660,130,600,130,540,130C480,130,420,130,360,130C300,130,240,130,180,130C120,130,60,130,30,130L0,130Z"/></svg>